<?xml version="1.0" encoding="utf-8"?>
<!-- Generator: Adobe Illustrator 25.2.1, SVG Export Plug-In . SVG Version: 6.00 Build 0)  -->
<svg version="1.1" id="Capa_1" xmlns="http://www.w3.org/2000/svg" xmlns:xlink="http://www.w3.org/1999/xlink" x="0px" y="0px"
	 viewBox="0 0 800 800" style="enable-background:new 0 0 800 800;" xml:space="preserve">
<style type="text/css">
	.st0{fill:#009688;}
	.st1{fill:none;stroke:#009688;stroke-width:35;stroke-miterlimit:10;}
</style>
<g id="logo">
	<g>
		<g>
			<path class="st0" d="M675.6,122.8C602.5,49.6,505.3,9.3,401.6,9.3C188.1,9.3,14.3,183,14.2,396.5c0,68.3,17.8,134.9,51.7,193.6
				L11,790.7l205.4-53.8c56.6,30.8,120.3,47.1,185.1,47.1h0.2c0,0,0,0,0,0c213.5,0,387.3-173.7,387.4-387.2
				C789,293.3,748.8,196,675.6,122.8z M401.6,718.6h-0.1c-57.8,0-114.4-15.5-163.9-44.9l-11.8-7l-121.9,32L136.5,580l-7.7-12.2
				c-32.2-51.2-49.2-110.5-49.2-171.3C79.7,219,224.2,74.7,401.8,74.7c86,0,166.8,33.6,227.6,94.4c60.8,60.8,94.2,141.7,94.2,227.7
				C723.5,574.2,579.1,718.6,401.6,718.6z"/>
		</g>
	</g>
</g>
<g>
	<path class="st1" d="M322.7,420.2L322.7,420.2c-27.3-29.6-25.5-75.8,4.2-103.2L448,205.3c29.6-27.3,75.8-25.5,103.2,4.2l0,0
		c27.3,29.6,25.5,75.8-4.2,103.2L425.9,424.3C396.3,451.7,350.1,449.8,322.7,420.2z"/>
	<path class="st1" d="M248.8,590.6L248.8,590.6c-27.3-29.6-25.5-75.8,4.2-103.2l121.1-111.7c29.6-27.3,75.8-25.5,103.2,4.2l0,0
		c27.3,29.6,25.5,75.8-4.2,103.2L352,594.7C322.4,622.1,276.2,620.2,248.8,590.6z"/>
</g>
</svg>
